/* XPM */
static char *_eb7723d081f4e6abda4071392d959547SWmgjbtFBmGoLXH[] = {
/* columns rows colors chars-per-pixel */
"30 30 218 2 ",
"   c None",
".  c black",
"X  c #000003",
"o  c #00000C",
"O  c #00000D",
"+  c #150000",
"@  c #1D0007",
"#  c #001302",
"$  c #000015",
"%  c #161617",
"&  c #260506",
"*  c #290B06",
"=  c #21000B",
"-  c #27000D",
";  c #210F0E",
":  c #2A090B",
">  c #290A0A",
",  c #350307",
"<  c #3B0C0E",
"1  c #3F0D0F",
"2  c #2B1D06",
"3  c #2F0B15",
"4  c #3D0F10",
"5  c #281613",
"6  c #2C1413",
"7  c #2F1016",
"8  c #271A18",
"9  c #331413",
"0  c #371413",
"q  c #3D1514",
"w  c #371B17",
"e  c #381A17",
"r  c #3A1A19",
"t  c #3F1B19",
"y  c #3D1C19",
"u  c #2B2209",
"i  c #3F2603",
"p  c #373004",
"a  c #3B2213",
"s  c #3F201D",
"d  c #001534",
"f  c #001A3D",
"g  c #510011",
"h  c #421613",
"j  c #421F1C",
"k  c #431F1C",
"l  c #5D1F1E",
"z  c #650000",
"x  c #6B0016",
"c  c #6A1518",
"v  c #7D1118",
"b  c #562E0C",
"n  c #453500",
"m  c #5C350C",
"M  c #5D370F",
"N  c #422917",
"B  c #44221F",
"V  c #463015",
"C  c #5A3B14",
"Z  c #5F371A",
"A  c #633515",
"S  c #723416",
"D  c #763715",
"F  c #7A3F18",
"G  c #462420",
"H  c #4A2320",
"J  c #4D2925",
"K  c #4C2B26",
"L  c #522B26",
"P  c #592B27",
"I  c #532C28",
"U  c #4E3024",
"Y  c #4B342A",
"T  c #5E312C",
"R  c #7B2928",
"E  c #6A3833",
"W  c #6B3933",
"Q  c #6E3B36",
"!  c #6E3A37",
"~  c #6F3D37",
"^  c #723A35",
"/  c #733E39",
"(  c #753E38",
")  c #743F39",
"_  c #584517",
"`  c #654211",
"'  c #7D6B0D",
"]  c #734020",
"[  c #6E4230",
"{  c #77413B",
"}  c #77543A",
"|  c #796222",
" . c #7C6526",
".. c #001C41",
"X. c #5F4B64",
"o. c #58557A",
"O. c #90000B",
"+. c #83071C",
"@. c #84181D",
"#. c #85191E",
"$. c #8A191D",
"%. c #A03F1E",
"&. c #870020",
"*. c #9C1322",
"=. c #981E23",
"-. c #991F23",
";. c #9A1E24",
":. c #9A1F24",
">. c #A90027",
",. c #AF0027",
"<. c #B00F24",
"1. c #A31A24",
"2. c #AC1A27",
"3. c #B01A28",
"4. c #B21C2B",
"5. c #B21F2B",
"6. c #8C2322",
"7. c #8A2324",
"8. c #9C2322",
"9. c #9B2727",
"0. c #9E392B",
"q. c #992930",
"w. c #A02C21",
"e. c #B32429",
"r. c #B3252B",
"t. c #B62529",
"y. c #B72628",
"u. c #B5262A",
"i. c #B6262A",
"p. c #B7272B",
"a. c #B4202C",
"s. c #B6252C",
"d. c #BA252B",
"f. c #B42B2F",
"g. c #B92B2A",
"h. c #BE2B29",
"j. c #BC282C",
"k. c #BE2C2D",
"l. c #A83822",
"z. c #B3342A",
"x. c #BF312D",
"c. c #BF342D",
"v. c #B43B29",
"b. c #B53A2A",
"n. c #B72C38",
"m. c #B63230",
"M. c #C2252D",
"N. c #C12F2A",
"B. c #C1282D",
"V. c #C3282D",
"C. c #C52B2C",
"Z. c #C4292E",
"A. c #C82F2E",
"S. c #CB2232",
"D. c #CC2735",
"F. c #C52930",
"G. c #C52934",
"H. c #CB2B30",
"J. c #CA2C30",
"K. c #CF2D32",
"L. c #D12E33",
"P. c #D33336",
"I. c #D83035",
"U. c #D33438",
"Y. c #D43438",
"T. c #D63538",
"R. c #D8373B",
"E. c #D7383B",
"W. c #DA393B",
"Q. c #AA5C00",
"!. c #80690F",
"~. c #957C12",
"^. c #967C13",
"/. c #B5691F",
"(. c #904B26",
"). c #994C24",
"_. c #934D28",
"`. c #9C5C29",
"'. c #A44B20",
"]. c #A75A23",
"[. c #B9473C",
"{. c #BD5534",
"}. c #836F27",
"|. c #A76720",
" X c #B56F2E",
".X c #C6522F",
"XX c #CF7E32",
"oX c #8B565F",
"OX c #AC7041",
"+X c #AB7549",
"@X c #A27551",
"#X c #A87954",
"$X c #C86F43",
"%X c #C77555",
"&X c #A08515",
"*X c #A58C13",
"=X c #A08914",
"-X c #A28915",
";X c #A68D14",
":X c #AB8E19",
">X c #A48D2B",
",X c #A0882F",
"<X c #A08A33",
"1X c #AE9735",
"2X c #BC9E31",
"3X c #B59E39",
"4X c #C5AB34",
"5X c #C8AE34",
"6X c #D7945C",
"7X c #D8955C",
"8X c #D39B5E",
"9X c #DDA468",
"0X c #E2C944",
"qX c #E1C846",
"wX c #EDD349",
"eX c #636E9D",
"rX c #816E8F",
"tX c #8C9BC4",
/* pixels */
"                        7X      7X                          ",
"                      +X/.oXtXrXQ.OX                        ",
"                        ] X.eXo.[                           ",
"                          d ..f                             ",
"                        n.Z A C q.                          ",
"                      W.S._. X`.a.Y.                        ",
"                    E.K.j.G.(.m.F.V.Y.                      ",
"                  W.L.t.t.C.D.J.t.s.C.U.                    ",
"                  I.t.3.@ +.h.1.. *.d.H.P.                  ",
"                  V.2.m # '.&.l.u p 8.M.r.                  ",
"                  A.g ' =X|.).].&X^.2 g.t.                  ",
"                  c.S !.:X;X&X*X:X^.m v.4.                  ",
"                  N.] n  .5X1X4X<Xn A b.4.                  ",
"                  N.D . V qXqXwX}.. b z.4.                  ",
"                  .X2Xo _ <X0X3X| w. X2X>.                  ",
"                  N.8X#X. o U $ . $X9X{.,.                  ",
"                  f.%X} 3 N - a e Y @X[.<.                  ",
"                    O.= K r * 9 K 8 z                       ",
"                    9.h k & y : h 8 6.                      ",
"                    ;.< B w q 0 G ; @.                      ",
"                    -.1 L k , q I 6 @.                      ",
"                    -.: Q P v l ~ y $.                      ",
"                    ;.c E R   7.E % x                       ",
"                      r.^ T     Q 0.'.                      ",
"                          +     9                           ",
"                          H                                 ",
"                          {                                 ",
"                          )                                 ",
"                          )     )                           ",
"                                                            "
};
